<?xml version="1.0" encoding="UTF-8"?>
<svg id="Layer_1" data-name="Layer 1" xmlns="http://www.w3.org/2000/svg" xmlns:xlink="http://www.w3.org/1999/xlink" viewBox="0 0 2000 500">
  <defs>
    <style>
      .cls-1 {
        fill: url(#linear-gradient);
      }
    </style>
    <linearGradient id="linear-gradient" x1="362.29" y1="-109.5" x2="79.36" y2="380.54" gradientUnits="userSpaceOnUse">
      <stop offset=".02" stop-color="#0047bb"/>
      <stop offset=".33" stop-color="#3231bd"/>
      <stop offset=".78" stop-color="#7815c2"/>
    </linearGradient>
  </defs>
  <g>
    <polygon points="784.24 178.68 698.64 357.57 612.59 178.68 592.84 178.68 697.27 396.47 801.23 178.68 784.24 178.68"/>
    <path d="M1186.04,188.64c-13.38-9.95-27.6-15-42.26-15s-27.98,3.47-39.8,10.31c-9.82,5.68-17.59,12.76-23.16,21.08v-26.34h-18.01v209.63h18.01v-139.2c0-15.66,6.08-29.6,18.07-41.44,12-11.85,26.03-17.86,41.69-17.86s30.22,6.62,43.29,19.68l2.85,2.85v-23.2l-.67-.5Z"/>
    <path d="M1297.81,374.89c-17.2,0-31.99-6.01-43.98-17.85-11.99-11.84-18.07-27.01-18.07-45.11v-116.61h63.26v-16.17h-63.26v-83.44h-18.01v216.22c0,23,7.89,42.15,23.44,56.91,15.53,14.75,34.58,22.23,56.62,22.23h1.67v-16.17h-1.67Z"/>
    <g>
      <rect x="1723.4" y="179.14" width="18.01" height="209.18"/>
      <path d="M1732.41,103.95c-9.79,0-14.97,4.86-14.97,14.05s5.18,14.05,14.97,14.05,14.96-4.86,14.96-14.05-5.17-14.05-14.96-14.05Z"/>
    </g>
    <path d="M1977.99,178.68v45.95c-7.5-14.27-19.19-26.08-34.85-35.18-18.06-10.49-37.23-15.81-57-15.81-30.27,0-56.58,10.88-78.19,32.34-21.62,21.47-32.58,47.55-32.58,77.52s10.96,56.05,32.58,77.51c21.61,21.46,47.92,32.35,78.19,32.35,19.77,0,38.56-5.17,55.86-15.36,15.32-9.03,27.41-21.13,35.99-36.02v46.33h18.01v-209.63h-18.01ZM1978.91,283.73c0,25.25-9.1,47.38-27.03,65.77-17.93,18.37-39.81,27.69-65.05,27.69s-47.37-9.32-65.75-27.7c-18.38-18.39-27.7-40.43-27.7-65.52s9.32-47.3,27.71-65.99c18.39-18.68,40.43-28.15,65.51-28.15s46.96,9.39,65.05,27.92c18.09,18.54,27.26,40.75,27.26,65.99Z"/>
    <path d="M1687.86,316.22c-3.14-6.34-7.71-12.18-13.58-17.36-5.96-5.26-13.31-10-21.86-14.09-8.61-4.12-18.46-7.66-29.27-10.53l-6.77-1.74c-4.59-1.18-9.53-2.76-14.68-4.69-5.25-1.96-10.14-4.46-14.54-7.42-4.52-3.04-8.32-6.76-11.31-11.05-3.13-4.49-4.72-9.73-4.72-15.58s1.21-11.23,3.59-16.07c2.36-4.81,5.72-9,9.96-12.47,4.19-3.43,9.24-6.1,15-7.96,5.71-1.84,12.04-2.77,18.8-2.77,10.91,0,20.78,2.57,29.36,7.63,8.51,5.02,15.4,11.6,20.47,19.55l.98,1.53c1.17,1.55,2.07,2.7,2.76,3.5l.15.18.22.07c.19.06.53.13,1.09.13.53,0,1.74-.2,3.95-1.57l7.94-4.6c.7-.43,1.24-.97,1.6-1.61.24-.44.53-1.1.53-1.73,0-.4-.1-1.31-.85-3.09-7.51-12.61-17.17-22.02-28.69-27.97-11.68-6.02-24.98-9.08-39.52-9.08-10.05,0-19.3,1.38-27.49,4.11-8.12,2.71-15.09,6.59-20.72,11.55-5.63,4.95-10.06,10.94-13.19,17.82-3.13,6.86-4.72,14.62-4.72,23.05,0,7.02,1.77,13.58,5.25,19.5,3.58,6.09,8.35,11.6,14.17,16.39,5.9,4.85,12.7,9.1,20.21,12.62,7.56,3.54,15.26,6.42,22.94,8.56,6.36,1.47,12.99,3.4,19.71,5.76,6.83,2.4,13.12,5.4,18.72,8.93,5.72,3.61,10.49,7.98,14.17,13,3.84,5.24,5.78,11.39,5.78,18.26,0,7.31-1.94,13.7-5.77,19.01-3.69,5.12-8.41,9.4-14.03,12.73-5.51,3.27-11.57,5.73-18.01,7.32-6.39,1.58-12.5,2.38-18.15,2.38-4.3,0-9.08-.66-14.2-1.95-5.11-1.29-10.2-3.25-15.14-5.82-4.97-2.59-9.6-5.83-13.76-9.62-4.24-3.86-7.69-8.34-10.26-13.3l-1.11-2.14c-.57-.97-1.24-1.78-1.99-2.4-.33-.27-.89-.64-1.97-.64-.38,0-1.1.08-2.4.49l-8.43,3.65c-1.16.51-2.05,1.22-2.72,2.16-.81,1.13-.93,1.81-.93,2.12s.08.85.42,1.65l.1.27c2.28,6.88,5.78,13.05,10.4,18.34,4.65,5.33,10.26,9.82,16.64,13.36,6.45,3.57,13.59,6.31,21.23,8.13,7.68,1.83,15.79,2.76,24.12,2.76,10.09,0,19.83-1.32,28.97-3.93,9.05-2.59,17.12-6.44,23.98-11.46,6.79-4.97,12.26-11.2,16.25-18.5,3.97-7.26,5.98-15.68,5.98-25.05,0-7.23-1.57-14.07-4.68-20.34Z"/>
    <path d="M992.23,216.31c-22.74-22.22-49.72-33.48-80.17-33.13-30.47.24-56.32,11-76.84,32-20.52,20.99-30.86,47.35-30.72,78.35.14,31.01,10.85,57.14,31.85,77.66l2.95,2.88c14.55,14.22,31.56,23.53,50.59,27.68,1.87.41,3.77.77,5.68,1.08,4.07.68,8.35,1.13,12.72,1.32,1.04.05,2.08.09,3.13.11h.48c.55.02,1.1.03,1.64.03h.33c3.09,0,5.66-.05,8.07-.2l3.19-.35c31.03-2.22,56.98-16.24,77.12-41.69l2.14-2.71h-23.74l-.49.48c-4.68,4.62-9.78,8.8-15.14,12.44-6.75,4.58-14.12,8.22-21.98,10.85l.14-.15-5.34,1.11c-16.27,3.36-32.61,3.01-48.54-1.04-3.64-.93-7.35-2.14-10.94-3.56-1.96-.94-3.93-1.95-5.92-3.04l-1.16-.64-.32.36c-8.84-4.48-17.23-10.57-24.96-18.12-12.45-12.18-20.39-30.42-23.59-54.25l200.39-.99h1.6s.06-1.6.06-1.6c1.35-34.07-9.5-62.62-32.25-84.86ZM914.74,200.6c25.4,0,46.73,8.26,63.4,24.55,16.58,16.21,26.14,36.45,28.43,60.2l-184.42,1.46c1.55-23.16,10.6-43.35,26.91-60.03,16.69-17.07,38.34-25.88,64.33-26.18.45,0,.9,0,1.35,0Z"/>
    <path d="M1499.23,209.05c-22.5-21.99-49.14-33.13-79.21-33.13-.32,0-.64,0-.96,0-30.47.24-56.33,11-76.85,32-20.52,20.99-30.85,47.35-30.72,78.35.13,31.01,10.85,57.14,31.85,77.66l2.95,2.88c14.55,14.22,31.56,23.54,50.59,27.68,1.88.41,3.77.77,5.68,1.08,4.07.68,8.35,1.13,12.71,1.32,1.04.05,2.08.09,3.14.11h.48c.55.02,1.1.03,1.64.03h.34c3.11,0,5.66-.05,8.07-.2l3.19-.35c31.04-2.22,56.98-16.24,77.12-41.69l2.14-2.71h-23.74l-.49.48c-4.68,4.61-9.78,8.8-15.15,12.44-6.75,4.59-14.13,8.22-21.99,10.86l.14-.15-5.33,1.1c-16.27,3.36-32.6,3.01-48.54-1.04-3.64-.93-7.35-2.14-10.94-3.56-1.96-.94-3.93-1.95-5.92-3.04l-1.17-.64-.32.36c-8.84-4.48-17.23-10.57-24.96-18.12-12.45-12.17-20.39-30.42-23.59-54.25l200.39-.99h1.59s.07-1.6.07-1.6c1.35-34.07-9.5-62.62-32.25-84.86ZM1421.74,193.34c25.4,0,46.73,8.26,63.4,24.55,16.58,16.21,26.14,36.45,28.43,60.2l-184.42,1.46c1.56-23.16,10.61-43.35,26.91-60.03,16.69-17.07,38.34-25.88,64.33-26.18.45,0,.9,0,1.35,0Z"/>
  </g>
  <path class="cls-1" d="M291.55,204.47v137.9c4.6,1.18,8.51,4.09,11.01,7.99l56.17-18.34c.15-2.69,1.16-5.16,2.74-7.14l-69.56-120.51-.35.09ZM204.44,320.22l69.52-120.45c-3.44-3.36-5.58-8.06-5.58-13.25,0-.83.06-1.65.16-2.45l-96.77-39.1c-1.52,1.69-3.35,3.1-5.39,4.14l38.05,171.11ZM212.52,340.89l69.41,120.23.36-.1v-82.74c-8-2.06-13.91-9.31-13.91-17.95,0-.4.02-.79.04-1.18l-55.91-18.25ZM39.26,40.77l119.46,206.91v.02l32.8,56.81-34.11-153.4c-9.96-.31-17.93-8.49-17.93-18.52,0-2.81.62-5.47,1.74-7.86L39.26,40.77ZM179.63,25.66H40.48c-.29,1.12-.68,2.2-1.16,3.23l107.75,88.73c3.06-2.24,6.84-3.57,10.93-3.57l.72.02,24.87-83.1c-1.75-1.38-3.13-3.2-3.96-5.3ZM273.96,173.28L193.27,33.52c-.28.04-.55.07-.83.09l-24.87,83.1c5.37,3.25,8.96,9.14,8.96,15.87,0,1.43-.17,2.83-.47,4.17l95.95,38.77c.59-.8,1.25-1.55,1.95-2.24ZM380.58,33.52l-80.69,139.76c.71.7,1.36,1.44,1.95,2.24l95.95-38.77c-.31-1.34-.47-2.74-.47-4.17,0-6.73,3.59-12.63,8.96-15.87l-24.87-83.1c-.28-.02-.56-.05-.83-.09ZM533.36,25.66h-139.15c-.83,2.1-2.21,3.93-3.96,5.3l24.87,83.1.72-.02c4.09,0,7.87,1.32,10.93,3.57l107.75-88.73c-.48-1.03-.87-2.11-1.16-3.23ZM382.33,304.51l32.8-56.81v-.02l119.46-206.91-101.95,83.95c1.12,2.38,1.74,5.05,1.74,7.86,0,10.03-7.98,18.21-17.93,18.52l-34.11,153.4ZM291.91,461.11l69.41-120.23-55.91,18.25c.02.39.04.78.04,1.18,0,8.64-5.91,15.89-13.91,17.95v82.74l.36.1ZM369.4,320.22l38.05-171.11c-2.04-1.04-3.87-2.45-5.39-4.14l-96.77,39.1c.1.8.16,1.62.16,2.45,0,5.19-2.14,9.88-5.58,13.25l69.52,120.45ZM204.41,345.25c-.62.09-1.25.14-1.89.14-6.97,0-12.62-5.65-12.62-12.62,0-2.98,1.03-5.72,2.76-7.87l-41.91-72.59h0S27.52,38.89,27.52,38.89c-1.59.44-3.26.68-4.98.68-10.23,0-18.53-8.3-18.53-18.53S12.3,2.5,22.53,2.5c8.64,0,15.89,5.91,17.95,13.91h139.15c1.85-4.68,6.41-8,11.75-8,6.97,0,12.62,5.65,12.62,12.62,0,2.98-1.03,5.72-2.76,7.88l80.69,139.76c1.59-.44,3.26-.68,4.99-.68s3.4.24,4.99.68L372.6,28.91c-1.73-2.16-2.76-4.9-2.76-7.88,0-6.97,5.65-12.62,12.62-12.62,5.34,0,9.9,3.31,11.75,8h139.15c2.06-8,9.31-13.91,17.95-13.91,10.24,0,18.53,8.3,18.53,18.53s-8.3,18.53-18.53,18.53c-1.73,0-3.4-.24-4.98-.68l-123.22,213.42h0s-41.91,72.58-41.91,72.58c1.73,2.16,2.76,4.9,2.76,7.87,0,6.97-5.65,12.62-12.62,12.62-.64,0-1.27-.05-1.89-.14l-69.55,120.47c3.44,3.36,5.57,8.05,5.57,13.24,0,10.24-8.3,18.53-18.53,18.53s-18.53-8.3-18.53-18.53c0-5.19,2.13-9.88,5.57-13.24l-69.55-120.47ZM212.38,324.89c1.58,1.98,2.58,4.44,2.74,7.14l56.17,18.34c2.49-3.9,6.4-6.81,11.01-7.99v-137.9l-.35-.09-69.56,120.51Z"/>
</svg>